<svg width="1920" height="1080" viewBox="0 0 1920 1080" fill="none" xmlns="http://www.w3.org/2000/svg">
<g clip-path="url(#clip0)">
<rect width="1920" height="1080" fill="white"/>
<circle cx="292" cy="951" r="30" fill="#4E8FF1"/>
<path d="M671 907.5C671 919.926 660.926 930 648.5 930C636.074 930 626 919.926 626 907.5C626 895.074 636.074 885 648.5 885C660.926 885 671 895.074 671 907.5Z" fill="#4E8FF1"/>
<path d="M1746.38 1050.44C1746.38 1172.25 1654.52 1271 1541.19 1271C1427.87 1271 1336 1172.25 1336 1050.44C1336 928.634 1427.87 829.888 1541.19 829.888C1654.52 829.888 1746.38 928.634 1746.38 1050.44Z" fill="#4E8FF1"/>
<ellipse cx="1404.6" cy="404.138" rx="15.4512" ry="18.2882" fill="#4E8FF1"/>
<ellipse cx="1415.42" cy="696.384" rx="10.8158" ry="12.8018" fill="#4E8FF1"/>
<ellipse cx="1684.58" cy="344.153" rx="61.8047" ry="73.1529" fill="#4E8FF1"/>
<ellipse cx="1481.86" cy="610.429" rx="61.8047" ry="73.1529" fill="#4E8FF1"/>
<ellipse cx="1363.81" cy="826.962" rx="27.8121" ry="32.9188" fill="#4E8FF1"/>
<ellipse cx="1521.41" cy="417.306" rx="30.9023" ry="36.5764" fill="#4E8FF1"/>
<ellipse cx="1895.02" cy="728.206" rx="440.977" ry="422.824" fill="#337EEF"/>
<ellipse cx="621.188" cy="274.038" rx="27.8121" ry="32.9188" transform="rotate(-180 621.188 274.038)" fill="#4E8FF1"/>
<path d="M238.617 50.556C238.617 -71.2537 330.484 -170 443.808 -170C557.133 -170 649 -71.2537 649 50.556C649 172.366 557.133 271.112 443.808 271.112C330.484 271.112 238.617 172.366 238.617 50.556Z" fill="#4E8FF1"/>
<ellipse cx="580.397" cy="696.862" rx="15.4512" ry="18.2882" transform="rotate(-180 580.397 696.862)" fill="#4E8FF1"/>
<ellipse cx="569.581" cy="404.616" rx="10.8158" ry="12.8018" transform="rotate(-180 569.581 404.616)" fill="#4E8FF1"/>
<ellipse cx="300.421" cy="756.847" rx="61.8047" ry="73.1529" transform="rotate(-180 300.421 756.847)" fill="#4E8FF1"/>
<ellipse cx="503.141" cy="490.571" rx="61.8047" ry="73.1529" transform="rotate(-180 503.141 490.571)" fill="#4E8FF1"/>
<ellipse cx="463.586" cy="683.694" rx="30.9023" ry="36.5764" transform="rotate(-180 463.586 683.694)" fill="#4E8FF1"/>
<ellipse cx="89.9765" cy="372.794" rx="440.977" ry="422.824" transform="rotate(-180 89.9765 372.794)" fill="#337EEF"/>
</g>
<defs>
<clipPath id="clip0">
<rect width="1920" height="1080" fill="white"/>
</clipPath>
</defs>
</svg>
